<svg id="Layer_1" data-name="Layer 1" xmlns="http://www.w3.org/2000/svg" viewBox="0 0 275.74 38.81">
  <defs>
    <style>
      .cls-1 {
        fill: #dde6ed;
      }
    </style>
  </defs>
  <path class="cls-1" d="M2.62,4.54h20v6H9.17v6H21.56v6.05H9.17V34.27H2.62Z"/>
  <path class="cls-1" d="M27.19,4.54h6.55V34.27H27.19Z"/>
  <path class="cls-1" d="M40,4.54h6.55V28.22H58.65v6.05H40Z"/>
  <path class="cls-1" d="M62.26,4.54h9.91L79,23.94h.08L86,4.54h9.87V34.27H89.31V11.47h-.09l-7.81,22.8h-5L68.9,11.47h-.09v22.8H62.26Z"/>
  <path class="cls-1" d="M114.59,4.54h19.95v6h-13.4v6h12.39v6.05H121.14V34.27h-6.55Z"/>
  <path class="cls-1" d="M139.16,4.54h6.55V34.27h-6.55Z"/>
  <path class="cls-1" d="M151.68,4.54h8.9L173.22,25.2h.09V4.54h6.55V34.27h-8.57l-13-21.17h-.08V34.27h-6.55Z"/>
  <path class="cls-1" d="M185.91,4.54h9.82a28.2,28.2,0,0,1,6.79.79,15.6,15.6,0,0,1,5.6,2.59,12.6,12.6,0,0,1,3.81,4.64,15.65,15.65,0,0,1,1.4,6.93A14.11,14.11,0,0,1,212,25.85a13.58,13.58,0,0,1-3.68,4.62A16.34,16.34,0,0,1,203,33.31a20.85,20.85,0,0,1-6.34,1H185.91Zm6.55,23.68h3.4a18.2,18.2,0,0,0,4.22-.46,9,9,0,0,0,3.38-1.53,7.34,7.34,0,0,0,2.25-2.82,9.9,9.9,0,0,0,.82-4.26,8.28,8.28,0,0,0-.82-3.8,7.58,7.58,0,0,0-2.21-2.67,9.73,9.73,0,0,0-3.25-1.57,14.51,14.51,0,0,0-3.93-.53h-3.86Z"/>
  <path class="cls-1" d="M218,4.54h20.2v6H224.59v5.55h12.89v6.05H224.59v6H239v6.05H218Z"/>
  <polygon class="cls-1" points="269.06 10.27 266.55 10.27 266.55 4.54 255.75 4.54 249.14 4.54 244.24 4.54 244.24 34.27 250.8 34.27 250.8 21.73 254.03 21.73 260.25 34.27 268.1 34.27 260.55 21.73 266.55 21.73 266.55 16.52 269.06 16.52 273.12 18.97 273.12 7.95 269.06 10.27"/>
</svg>
